<svg viewBox="0 0 120 120" xmlns="http://www.w3.org/2000/svg">
  <!-- Helagi mark (components/Logo.tsx) on the cream brand canvas -->
  <rect width="120" height="120" rx="26" fill="#F6F1E7"/>
  <g stroke="#1F5C45" stroke-width="3" stroke-linecap="round" fill="none" opacity="0.9">
    <path d="M60 95 C 53 100, 47 102, 41 106"/>
    <path d="M60 95 C 60 101, 60 104, 60 108"/>
    <path d="M60 95 C 67 100, 73 102, 79 106"/>
  </g>
  <path d="M60 96 C 57 82, 63 68, 60 52" stroke="#1F5C45" stroke-width="4.4" fill="none" stroke-linecap="round"/>
  <g fill="#D98E5A">
    <circle cx="58.3" cy="84" r="2.5"/>
    <circle cx="61.2" cy="74" r="2.5"/>
    <circle cx="59.2" cy="63.5" r="2.5"/>
  </g>
  <path d="M60 55 C 49 53, 39 48, 33 39 C 42 39, 53 44, 60 55 Z" fill="#74B58C"/>
  <path d="M60 48 C 70 45, 80 40, 85 31 C 75 32, 64 38, 60 48 Z" fill="#4E9E72"/>
</svg>
